# xmcd
#
# Track frame offsets: 
#        150
#        18340
#        36705
#        64495
#        89320
#        102237
#        122795
#        138665
#        158187
#        173887
#        195242
#        217740
#        232077
#
# Disc length: 3325 seconds
#
# Revision: 0
# Processed by: cddbd v1.5.1PL2 Copyright (c) Steve Scherf et al.
# Submitted via: ExactAudioCopy v0.95b2
#
DISCID=b80cfb0d
DTITLE=LEROY HUSTON - Love The Feeling
DYEAR=1994
DGENRE=Soul
TTITLE0=Get To This (You'll Get To Me)
TTITLE1=Lover's Holiday
TTITLE2=Closer To The Source
TTITLE3=More Where That Come From
TTITLE4=Don't It Make Feel Good
TTITLE5=The Ghetto '74
TTITLE6=Love To Hold You Close
TTITLE7=When You Smile
TTITLE8=They've Got Love
TTITLE9=Love You Down
TTITLE10=I Bless The Day
TTITLE11=So Much Love
TTITLE12=The Look Of Love 
EXTD=
EXTT0=
EXTT1=
EXTT2=
EXTT3=
EXTT4=
EXTT5=
EXTT6=
EXTT7=
EXTT8=
EXTT9=
EXTT10=
EXTT11=
EXTT12=
PLAYORDER=
